<?xml version="1.0" standalone="no"?>
<!DOCTYPE svg PUBLIC "-//W3C//DTD SVG 20010904//EN"
 "http://www.w3.org/TR/2001/REC-SVG-20010904/DTD/svg10.dtd">
<svg version="1.0" xmlns="http://www.w3.org/2000/svg"
 width="700.000000pt" height="700.000000pt" viewBox="0 0 700.000000 700.000000"
 preserveAspectRatio="xMidYMid meet">
<metadata>
Created by potrace 1.11, written by Peter Selinger 2001-2013
</metadata>
<g transform="translate(0.000000,700.000000) scale(0.100000,-0.100000)"
fill="#000000" stroke="none">
<path d="M2887 6983 c-65 -22 -139 -90 -168 -155 -23 -52 -24 -60 -26 -373 -1
-176 -2 -323 -2 -327 -1 -3 -25 -14 -53 -24 -90 -29 -248 -93 -330 -135 -44
-21 -83 -39 -88 -39 -4 0 -102 94 -217 208 -114 114 -224 220 -243 234 -46 35
-124 56 -184 52 -106 -8 -123 -22 -549 -448 -234 -235 -406 -414 -418 -437
-45 -89 -42 -203 8 -282 14 -23 122 -137 239 -255 118 -118 214 -220 214 -226
0 -6 -6 -20 -14 -31 -22 -32 -112 -242 -147 -342 -22 -66 -36 -93 -48 -93 -9
0 -155 -2 -326 -4 -241 -2 -318 -6 -348 -17 -55 -21 -128 -89 -157 -145 l-25
-49 0 -595 0 -595 23 -45 c33 -63 86 -115 146 -141 49 -22 63 -23 366 -25 173
-2 320 -3 327 -3 6 -1 21 -31 34 -68 32 -98 83 -222 131 -319 l41 -85 -29 -30
c-16 -17 -119 -122 -229 -232 -184 -186 -202 -207 -221 -262 -13 -38 -20 -79
-18 -113 6 -109 18 -124 450 -556 420 -421 446 -442 540 -449 49 -4 115 8 162
30 20 10 136 117 260 240 123 123 227 223 232 223 5 0 48 -20 97 -44 91 -45
228 -101 321 -131 48 -16 52 -20 53 -49 0 -17 1 -164 3 -326 2 -283 3 -297 24
-346 27 -60 79 -113 142 -146 l45 -23 574 -3 c518 -3 579 -1 628 14 71 22 143
87 174 156 23 52 23 62 25 363 2 171 3 318 3 327 1 10 15 21 39 28 101 32 250
93 369 152 50 25 65 28 77 19 8 -7 111 -108 229 -225 118 -117 231 -220 250
-229 46 -22 112 -34 161 -30 95 7 120 28 540 449 415 414 436 439 450 533 7
51 -12 138 -41 185 -15 23 -122 137 -240 255 -117 117 -213 216 -213 220 0 4
18 44 40 89 44 89 99 222 119 287 24 75 35 95 56 96 11 0 157 1 325 3 296 2
307 2 358 25 31 14 70 43 96 72 76 85 75 71 75 709 0 638 1 624 -75 709 -26
29 -65 58 -96 72 -52 23 -60 24 -368 26 -173 1 -320 2 -327 3 -6 0 -19 24 -29
53 -30 93 -86 230 -130 321 -24 48 -44 92 -44 96 0 5 99 108 221 230 249 250
273 284 272 395 0 120 -6 128 -449 570 -432 432 -447 444 -556 449 -70 3 -129
-16 -186 -58 -26 -20 -122 -111 -214 -203 -91 -92 -182 -183 -202 -202 l-35
-34 -63 31 c-119 58 -241 109 -352 147 l-59 20 -1 325 -1 325 -26 55 c-32 67
-71 107 -135 140 l-49 25 -580 2 c-511 2 -586 0 -628 -14z m883 -1682 c535
-85 996 -392 1282 -853 54 -88 138 -258 138 -280 0 -8 4 -18 9 -23 22 -25 82
-247 96 -356 4 -30 10 -58 13 -64 13 -20 10 -372 -4 -456 -7 -46 -16 -102 -19
-124 -9 -55 -49 -196 -80 -280 -206 -552 -681 -980 -1248 -1126 -45 -11 -91
-23 -102 -25 -125 -22 -185 -27 -332 -29 -103 -2 -204 3 -255 11 -46 7 -96 15
-113 17 -16 3 -67 14 -112 26 -514 133 -949 490 -1181 971 -72 150 -133 333
-149 450 -3 19 -11 68 -18 108 -13 75 -13 422 -1 472 4 14 9 43 12 65 10 74
54 236 91 333 181 486 574 881 1059 1063 90 33 232 75 289 84 11 2 54 9 95 15
41 7 82 13 90 14 43 7 375 -3 440 -13z"/>
<path d="M3489 4856 c-2 -2 -44 -6 -94 -9 -49 -3 -103 -8 -120 -11 -292 -56
-525 -178 -729 -381 -215 -214 -348 -482 -391 -792 -7 -46 -8 -311 -1 -321 2
-4 7 -29 10 -57 20 -146 87 -333 175 -480 196 -331 568 -584 941 -641 25 -3
56 -8 70 -10 32 -5 277 -5 310 1 82 12 113 19 184 37 90 23 206 68 280 109 28
15 69 38 91 50 118 65 308 248 402 387 123 184 194 369 228 602 11 69 8 277
-5 355 -23 148 -79 315 -148 445 -126 237 -369 469 -607 580 -158 73 -288 110
-450 125 -128 13 -143 14 -146 11z"/>
</g>
</svg>
